# xmcd
#
# Track frame offsets:
#	150
#	12299
#	28451
#	42611
#	57767
#	75304
#	89270
#	103296
#	120585
#	134535
#	151194
#	164532
#	177572
#	192425
#	204349
#	217882
#	233243
#	246345
#	258399
#	274849
#	288420
#
# Disc length: 4055 seconds
#
# Revision: 1
# Processed by: cddbd v1.5.2PL0 Copyright (c) Steve Scherf et al.
# Submitted via: audiograbber 1.83.01
#
DISCID=340fd515
DTITLE=Country-Made in Germany - CD 1 - Tom Astor
DYEAR=1900
DGENRE=Country
TTITLE0=Hallo, Guten Morgen Deutschland
TTITLE1=Flieg, Junger Adler
TTITLE2=Take it easy, nimm´s leicht
TTITLE3=und ich bin dein Freund
TTITLE4=So ist das Leben
TTITLE5=Du bist da (wenn´s drum geht)
TTITLE6=Ich bin kein Dichter, kein Poet
TTITLE7=Lucille
TTITLE8=Hautnah
TTITLE9=Freundschaft
TTITLE10=Hungrige Herzen
TTITLE11=Nutz die Zeit
TTITLE12=Renovier deine Seele
TTITLE13=Freunde
TTITLE14=Kleiner Rebell
TTITLE15=Es kommt sowieso niemals so
TTITLE16=Ich bin einer so wie du
TTITLE17=Frau´n wie du
TTITLE18=Irgendwie wird´s schon gehen
TTITLE19=Ich bin wie ich bin
TTITLE20=Darum sag ich Danke für mein Leben
EXTD=Reader Digest Edition
EXTT0=
EXTT1=
EXTT2=
EXTT3=
EXTT4=
EXTT5=
EXTT6=
EXTT7=
EXTT8=
EXTT9=
EXTT10=
EXTT11=
EXTT12=
EXTT13=
EXTT14=
EXTT15=
EXTT16=
EXTT17=
EXTT18=
EXTT19=
EXTT20=
PLAYORDER=
